<svg height="512pt" viewBox="0 0 512 512" width="512pt" xmlns="http://www.w3.org/2000/svg"><path d="m274.558594 512h-37.117188c-18.902344 0-34.539062-13.589844-37.183594-32.339844l-5.484374-41.707031c-8.363282-2.773437-16.449219-6.125-24.257813-10.007813l-33.191406 25.496094c-14.742188 11.433594-35.925781 10.023438-49.238281-3.308594l-26.21875-26.238281c-13.3125-13.292969-14.71875-34.476562-3.265626-49.261719l25.472657-33.148437c-3.902344-7.808594-7.230469-15.917969-10.003907-24.257813l-41.578124-5.460937c-18.902344-2.667969-32.492188-18.304687-32.492188-37.207031v-37.117188c0-18.902344 13.589844-34.539062 32.339844-37.183594l41.707031-5.484374c2.773437-8.363282 6.125-16.449219 10.007813-24.257813l-25.496094-33.191406c-11.410156-14.742188-10.003906-35.925781 3.308594-49.238281l26.238281-26.21875c13.292969-13.3125 34.476562-14.742188 49.28125-3.265626l33.128906 25.453126c7.789063-3.882813 15.894531-7.234376 24.257813-10.007813l5.460937-41.578125c2.667969-18.878906 18.304687-32.46875 37.207031-32.46875h37.117188c18.902344 0 34.539062 13.589844 37.183594 32.339844l5.484374 41.730468c8.363282 2.773438 16.449219 6.121094 24.257813 10.003907l33.191406-25.492188c14.742188-11.414062 35.949219-10.027343 49.238281 3.304688l26.21875 26.21875c13.3125 13.292969 14.71875 34.476562 3.265626 49.261719l-25.453126 33.148437c3.90625 7.808594 7.234376 15.917969 10.007813 24.257813l41.578125 5.460937c18.878906 2.667969 32.46875 18.304687 32.46875 37.207031v37.117188c0 18.902344-13.589844 34.539062-32.339844 37.183594l-41.730468 5.484374c-2.773438 8.363282-6.121094 16.449219-10.003907 24.257813l25.492188 33.191406c11.414062 14.742188 10.007812 35.925781-3.304688 49.238281l-26.21875 26.21875c-13.3125 13.292969-34.476562 14.679688-49.261719 3.265626l-33.148437-25.472657c-7.808594 3.902344-15.917969 7.230469-24.257813 10.003907l-5.460937 41.578124c-2.667969 18.902344-18.304687 32.492188-37.207031 32.492188zm-105.597656-119.039062c2.75 0 5.503906.703124 8 2.132812 11.328124 6.527344 23.59375 11.582031 36.480468 15.0625 6.226563 1.683594 10.855469 6.953125 11.710938 13.351562l6.828125 51.839844c.382812 2.667969 2.644531 4.652344 5.460937 4.652344h37.117188c2.839844 0 5.101562-1.960938 5.484375-4.800781l6.804687-51.691407c.855469-6.417968 5.460938-11.6875 11.710938-13.351562 12.886718-3.480469 25.175781-8.535156 36.480468-15.0625 5.613282-3.222656 12.585938-2.773438 17.75 1.171875l41.386719 31.789063c2.21875 1.707031 5.078125 1.46875 7.082031-.535157l26.242188-26.238281c2.003906-2.007812 2.238281-4.90625.574219-7.0625l-31.828125-41.429688c-3.949219-5.140624-4.417969-12.136718-1.175782-17.75 6.53125-11.328124 11.585938-23.59375 15.0625-36.480468 1.6875-6.226563 6.957032-10.855469 13.355469-11.710938l51.839844-6.828125c2.667969-.382812 4.652344-2.644531 4.652344-5.460937v-37.117188c0-2.839844-1.964844-5.101562-4.800781-5.484375l-51.691407-6.804687c-6.421875-.855469-11.691406-5.460938-13.355469-11.710938-3.476562-12.886718-8.53125-25.175781-15.0625-36.480468-3.21875-5.613282-2.75-12.609376 1.175782-17.75l31.785156-41.386719c1.707031-2.199219 1.453125-5.078125-.53125-7.082031l-26.242188-26.242188c-2.027343-2.003906-4.90625-2.261719-7.039062-.597656l-41.429688 31.832031c-5.164062 3.945313-12.136718 4.371094-17.75 1.171875-11.328124-6.527344-23.59375-11.582031-36.480468-15.0625-6.226563-1.683594-10.855469-6.953125-11.710938-13.351562l-6.828125-51.839844c-.359375-2.691406-2.621093-4.652344-5.460937-4.652344h-37.117188c-2.839844 0-5.101562 1.960938-5.484375 4.800781l-6.804687 51.691407c-.855469 6.417968-5.460938 11.6875-11.710938 13.351562-12.886718 3.480469-25.175781 8.535156-36.480468 15.0625-5.632813 3.199219-12.585938 2.753906-17.75-1.171875l-41.386719-31.789063c-2.175781-1.707031-5.054688-1.46875-7.082031.535157l-26.261719 26.238281c-2.003907 2.027344-2.242188 4.90625-.578125 7.0625l31.832031 41.429688c3.925781 5.140624 4.394531 12.136718 1.171875 17.726562-6.527344 11.328125-11.582031 23.597656-15.0625 36.480469-1.683594 6.230469-6.953125 10.859375-13.351562 11.710937l-51.839844 6.828125c-2.691406.382813-4.652344 2.644531-4.652344 5.484375v37.117188c0 2.839844 1.960938 5.101562 4.800781 5.484375l51.691407 6.804687c6.417968.855469 11.6875 5.460938 13.351562 11.710938 3.480469 12.886718 8.535156 25.175781 15.0625 36.480468 3.222656 5.613282 2.753906 12.609376-1.171875 17.75l-31.789063 41.386719c-1.707031 2.199219-1.449218 5.078125.535157 7.082031l26.238281 26.242188c1.984375 2.003906 4.886719 2.238281 7.0625.574219l41.429688-31.828125c2.859374-2.175782 6.292968-3.285156 9.75-3.285156zm0 0"/><path d="m256 362.667969c-58.816406 0-106.667969-47.851563-106.667969-106.667969s47.851563-106.667969 106.667969-106.667969 106.667969 47.851563 106.667969 106.667969-47.851563 106.667969-106.667969 106.667969zm0-181.335938c-41.171875 0-74.667969 33.496094-74.667969 74.667969s33.496094 74.667969 74.667969 74.667969 74.667969-33.496094 74.667969-74.667969-33.496094-74.667969-74.667969-74.667969zm0 0"/></svg>