<?xml version="1.0" standalone="no"?>
<!DOCTYPE svg PUBLIC "-//W3C//DTD SVG 20010904//EN"
 "http://www.w3.org/TR/2001/REC-SVG-20010904/DTD/svg10.dtd">
<svg version="1.0" xmlns="http://www.w3.org/2000/svg"
 width="512.000000pt" height="512.000000pt" viewBox="0 0 512.000000 512.000000"
 preserveAspectRatio="xMidYMid meet">
<metadata>
Created by potrace 1.15, written by Peter Selinger 2001-2017
</metadata>
<g transform="translate(0.000000,512.000000) scale(0.100000,-0.100000)"
fill="#000000" stroke="none">
<path d="M2305 5105 c-690 -108 -1241 -670 -1335 -1360 -14 -102 -14 -348 0
-445 48 -341 200 -647 445 -896 94 -95 222 -199 307 -247 l37 -22 3 -320 c3
-312 4 -321 26 -363 29 -55 89 -115 144 -144 l43 -23 585 0 585 0 43 23 c55
29 115 89 144 144 22 42 23 51 26 363 l3 320 37 22 c85 48 213 152 307 247
214 217 351 467 423 771 24 102 26 127 27 340 0 204 -3 241 -23 333 -64 284
-184 524 -369 737 -240 276 -611 475 -976 524 -104 14 -382 12 -482 -4z m476
-331 c182 -34 366 -111 508 -211 92 -65 238 -210 305 -302 107 -150 184 -331
220 -520 21 -110 21 -332 0 -442 -74 -392 -300 -695 -677 -909 l-97 -55 0
-367 0 -368 -480 0 -480 0 0 368 0 367 -97 55 c-266 151 -441 328 -563 570
-91 182 -130 348 -130 560 0 212 43 393 135 574 61 120 122 204 228 313 186
191 398 307 665 363 114 24 346 26 463 4z"/>
<path d="M1992 1100 c-48 -30 -72 -75 -72 -140 0 -65 24 -110 72 -140 32 -19
52 -20 568 -20 516 0 536 1 568 20 48 30 72 75 72 140 0 65 -24 110 -72 140
-32 19 -52 20 -568 20 -516 0 -536 -1 -568 -20z"/>
<path d="M1990 617 c-98 -65 -98 -209 0 -274 18 -13 45 -23 60 -23 26 0 28 -3
33 -54 10 -95 76 -188 169 -238 42 -22 51 -23 308 -23 257 0 266 1 308 23 93
50 159 143 169 238 5 50 8 54 32 54 71 0 131 74 131 160 0 65 -24 110 -72 140
-32 19 -52 20 -569 20 l-536 0 -33 -23z"/>
</g>
</svg>
