<?xml version="1.0" standalone="no"?>
<!DOCTYPE svg PUBLIC "-//W3C//DTD SVG 20010904//EN"
 "http://www.w3.org/TR/2001/REC-SVG-20010904/DTD/svg10.dtd">
<svg version="1.0" xmlns="http://www.w3.org/2000/svg"
 width="512.000000pt" height="298.000000pt" viewBox="0 0 512.000000 298.000000"
 preserveAspectRatio="xMidYMid meet">
<metadata>
Created by potrace 1.15, written by Peter Selinger 2001-2017
</metadata>
<g transform="translate(0.000000,298.000000) scale(0.100000,-0.100000)"
fill="#000000" stroke="none">
<path d="M44 2962 c-12 -9 -27 -27 -33 -39 -8 -15 -11 -191 -11 -589 l0 -567
38 -37 39 -36 -34 -39 c-36 -42 -47 -93 -15 -76 9 5 42 35 72 65 l54 56 65 0
65 0 -137 -139 c-106 -108 -137 -145 -137 -165 0 -22 3 -25 17 -17 10 5 88 80
173 165 l155 156 65 0 64 0 -242 -243 -242 -243 4 -580 c2 -318 5 -591 7 -606
l2 -28 2521 0 c2375 0 2522 1 2542 18 12 9 27 27 33 39 15 30 16 1136 0 1165
-8 15 -8 26 1 43 7 12 10 30 8 40 -3 17 -6 16 -31 -6 -24 -21 -36 -24 -88 -21
l-60 4 90 93 c67 69 91 101 91 120 0 37 -16 26 -145 -104 l-110 -111 -64 0
-65 0 192 194 c153 154 192 199 192 220 0 22 -3 25 -17 17 -10 -5 -112 -105
-228 -220 l-210 -211 -65 0 -65 0 210 210 210 210 48 0 c42 0 54 5 83 34 l34
34 0 575 0 575 -31 31 -31 31 -2496 0 c-2351 0 -2498 -1 -2518 -18z m341 -362
l-160 -160 -3 62 -3 62 98 98 98 98 65 0 65 0 -160 -160z m100 -100 l-260
-260 -3 62 -3 62 198 198 198 198 65 0 65 0 -260 -260z m100 -100 l-360 -360
-3 62 -3 62 298 298 298 298 65 0 65 0 -360 -360z m140 -60 l-420 -420 -42 0
c-85 0 -71 17 354 442 l398 398 65 0 65 0 -420 -420z m200 0 l-420 -420 -65 0
-65 0 420 420 420 420 65 0 65 0 -420 -420z m200 0 l-420 -420 -65 0 -65 0
420 420 420 420 65 0 65 0 -420 -420z m200 0 l-420 -420 -65 0 -65 0 420 420
420 420 65 0 65 0 -420 -420z m200 0 l-420 -420 -65 0 -65 0 420 420 420 420
65 0 65 0 -420 -420z m200 0 l-420 -420 -65 0 -65 0 420 420 420 420 65 0 65
0 -420 -420z m200 0 l-420 -420 -65 0 -65 0 420 420 420 420 65 0 65 0 -420
-420z m200 0 l-420 -420 -65 0 -65 0 420 420 420 420 65 0 65 0 -420 -420z
m200 0 l-420 -420 -65 0 -65 0 420 420 420 420 65 0 65 0 -420 -420z m200 0
l-420 -420 -65 0 -65 0 420 420 420 420 65 0 65 0 -420 -420z m200 0 l-420
-420 -65 0 -65 0 420 420 420 420 65 0 65 0 -420 -420z m200 0 l-420 -420 -65
0 -65 0 420 420 420 420 65 0 65 0 -420 -420z m200 0 l-420 -420 -65 0 -65 0
420 420 420 420 65 0 65 0 -420 -420z m200 0 l-420 -420 -65 0 -65 0 420 420
420 420 65 0 65 0 -420 -420z m200 0 l-420 -420 -65 0 -65 0 420 420 420 420
65 0 65 0 -420 -420z m200 0 l-420 -420 -65 0 -65 0 420 420 420 420 65 0 65
0 -420 -420z m200 0 l-420 -420 -65 0 -65 0 420 420 420 420 65 0 65 0 -420
-420z m200 0 l-420 -420 -65 0 -65 0 420 420 420 420 65 0 65 0 -420 -420z
m200 0 l-420 -420 -65 0 -65 0 420 420 420 420 65 0 65 0 -420 -420z m575 398
c0 -17 -110 -133 -397 -420 l-398 -398 -65 0 -65 0 420 420 420 420 42 0 c38
0 43 -3 43 -22z m-297 -520 l-298 -298 -65 0 -65 0 360 360 360 360 3 -62 3
-62 -298 -298z m100 -100 l-198 -198 -65 0 -65 0 260 260 260 260 3 -62 3 -62
-198 -198z m100 -100 l-98 -98 -65 0 -65 0 160 160 160 160 3 -62 3 -62 -98
-98z m-4328 -528 l-210 -210 -65 0 -65 0 210 210 210 210 65 0 65 0 -210 -210z
m200 0 l-210 -210 -65 0 -65 0 210 210 210 210 65 0 65 0 -210 -210z m200 0
l-210 -210 -65 0 -65 0 210 210 210 210 65 0 65 0 -210 -210z m200 0 l-210
-210 -65 0 -65 0 210 210 210 210 65 0 65 0 -210 -210z m200 0 l-210 -210 -65
0 -65 0 210 210 210 210 65 0 65 0 -210 -210z m200 0 l-210 -210 -65 0 -65 0
210 210 210 210 65 0 65 0 -210 -210z m200 0 l-210 -210 -65 0 -65 0 210 210
210 210 65 0 65 0 -210 -210z m200 0 l-210 -210 -65 0 -65 0 210 210 210 210
65 0 65 0 -210 -210z m200 0 l-210 -210 -65 0 -65 0 210 210 210 210 65 0 65
0 -210 -210z m200 0 l-210 -210 -65 0 -65 0 210 210 210 210 65 0 65 0 -210
-210z m200 0 l-210 -210 -65 0 -65 0 210 210 210 210 65 0 65 0 -210 -210z
m200 0 l-210 -210 -65 0 -65 0 210 210 210 210 65 0 65 0 -210 -210z m200 0
l-210 -210 -65 0 -65 0 210 210 210 210 65 0 65 0 -210 -210z m200 0 l-210
-210 -65 0 -65 0 210 210 210 210 65 0 65 0 -210 -210z m200 0 l-210 -210 -65
0 -65 0 210 210 210 210 65 0 65 0 -210 -210z m200 0 l-210 -210 -65 0 -65 0
210 210 210 210 65 0 65 0 -210 -210z m200 0 l-210 -210 -65 0 -65 0 210 210
210 210 65 0 65 0 -210 -210z m200 0 l-210 -210 -65 0 -65 0 210 210 210 210
65 0 65 0 -210 -210z m200 0 l-210 -210 -65 0 -65 0 210 210 210 210 65 0 65
0 -210 -210z m200 0 l-210 -210 -65 0 -65 0 210 210 210 210 65 0 65 0 -210
-210z m200 0 l-210 -210 -65 0 -65 0 210 210 210 210 65 0 65 0 -210 -210z
m200 0 l-210 -210 -65 0 -65 0 210 210 210 210 65 0 65 0 -210 -210z m-4340
-540 l-110 -110 -3 61 c-3 62 -3 62 45 111 47 48 48 48 112 48 l66 0 -110
-110z m100 -100 l-210 -210 -3 62 -3 62 148 148 148 148 65 0 65 0 -210 -210z
m100 -100 l-310 -310 -3 62 -3 62 248 248 248 248 65 0 65 0 -310 -310z m100
-100 l-410 -410 -3 62 -3 62 348 348 348 348 65 0 65 0 -410 -410z m190 -10
l-420 -420 -65 0 -65 0 420 420 420 420 65 0 65 0 -420 -420z m200 0 l-420
-420 -65 0 -65 0 420 420 420 420 65 0 65 0 -420 -420z m200 0 l-420 -420 -65
0 -65 0 420 420 420 420 65 0 65 0 -420 -420z m200 0 l-420 -420 -65 0 -65 0
420 420 420 420 65 0 65 0 -420 -420z m200 0 l-420 -420 -65 0 -65 0 420 420
420 420 65 0 65 0 -420 -420z m200 0 l-420 -420 -65 0 -65 0 420 420 420 420
65 0 65 0 -420 -420z m200 0 l-420 -420 -65 0 -65 0 420 420 420 420 65 0 65
0 -420 -420z m200 0 l-420 -420 -65 0 -65 0 420 420 420 420 65 0 65 0 -420
-420z m200 0 l-420 -420 -65 0 -65 0 420 420 420 420 65 0 65 0 -420 -420z
m200 0 l-420 -420 -65 0 -65 0 420 420 420 420 65 0 65 0 -420 -420z m200 0
l-420 -420 -65 0 -65 0 420 420 420 420 65 0 65 0 -420 -420z m200 0 l-420
-420 -65 0 -65 0 420 420 420 420 65 0 65 0 -420 -420z m200 0 l-420 -420 -65
0 -65 0 420 420 420 420 65 0 65 0 -420 -420z m200 0 l-420 -420 -65 0 -65 0
420 420 420 420 65 0 65 0 -420 -420z m200 0 l-420 -420 -65 0 -65 0 420 420
420 420 65 0 65 0 -420 -420z m200 0 l-420 -420 -65 0 -65 0 420 420 420 420
65 0 65 0 -420 -420z m200 0 l-420 -420 -65 0 -65 0 420 420 420 420 65 0 65
0 -420 -420z m200 0 l-420 -420 -65 0 -65 0 420 420 420 420 65 0 65 0 -420
-420z m200 0 l-420 -420 -65 0 -65 0 420 420 420 420 65 0 65 0 -420 -420z
m128 -72 l-348 -348 -65 0 -65 0 410 410 410 410 3 -62 3 -62 -348 -348z m100
-100 l-248 -248 -65 0 -65 0 310 310 310 310 3 -62 3 -62 -248 -248z m100
-100 l-148 -148 -65 0 -65 0 210 210 210 210 3 -62 3 -62 -148 -148z m100
-100 c-47 -48 -48 -48 -112 -48 l-66 0 110 110 110 110 3 -61 c3 -62 3 -62
-45 -111z"/>
</g>
</svg>
